<?xml version="1.0" encoding="utf-8"?>
<!-- Generator: Adobe Illustrator 24.0.1, SVG Export Plug-In . SVG Version: 6.00 Build 0)  -->
<svg version="1.1" id="Layer_1" xmlns="http://www.w3.org/2000/svg" xmlns:xlink="http://www.w3.org/1999/xlink" x="0px" y="0px"
	 viewBox="0 0 109 109" style="enable-background:new 0 0 109 109;" xml:space="preserve">
<style type="text/css">
	.st0{fill:#333333;}
	.st1{fill:#0194E2;}
	.st2{fill:#43C9ED;}
</style>
<path class="st0" d="M0,65.5V50h3.5v2c0.9-1.6,2.8-2.4,4.6-2.4c2,0,3.8,0.9,4.7,2.7c1.2-2,3-2.7,5-2.7c2.8,0,5.5,1.8,5.5,5.9v10.1
	h-3.6v-9.5c0-1.8-0.9-3.2-3-3.2c-1.9,0-3.2,1.5-3.2,3.4v9.2H9.9v-9.5c0-1.8-0.9-3.2-3-3.2c-2,0-3.2,1.5-3.2,3.4v9.2L0,65.5z"/>
<path class="st0" d="M27.9,65.5V42.4h3.7v23.1H27.9z"/>
<path class="st1" d="M30.1,74c0.8,0.2,1.6,0.4,3.2,0.4c3,0,6.4-1.7,7.4-6.3l3.8-18.7H50l0.7-3.1H45l0.8-3.7c0.6-2.9,2.2-4.4,4.8-4.4
	c0.7,0,0.5,0.1,1.1,0.2l0.8-3.2c-0.8-0.2-1.5-0.4-3-0.4c-1.6,0-3.2,0.5-4.5,1.5c-1.4,1.1-2.4,2.8-2.8,4.9L41,46.2h-5l-0.4,3.1h4.8
	l-3.5,17.3c-0.4,2-1.5,4.3-4.7,4.3c-0.7,0-0.5-0.1-1.1-0.2L30.1,74z"/>
<path class="st2" d="M71.8,51c-3.2-2.3-7.6-1.8-10.3,1c-2.7,2.9-2.9,7.3-0.5,10.4l2.4-1.8c-1.2-1.5-1.4-3.5-0.6-5.3
	c0.8-1.7,2.6-2.8,4.5-2.9l-0.1,1.9L71.8,51z"/>
<path class="st1" d="M53.3,65.4h-3.7l5.1-23.3h3.7L53.3,65.4z"/>
<path class="st1" d="M73.6,52.7c-0.1-0.1-0.2-0.2-0.3-0.3L71,54.1c1.3,1.5,1.7,3.6,0.9,5.4c-0.8,1.8-2.6,3-4.5,3l0.1-1.9l-4.7,3.4
	c3.2,2.2,7.5,1.7,10.2-1.1C75.6,60.2,75.9,55.9,73.6,52.7L73.6,52.7z"/>
<path class="st1" d="M78.1,50h4L83,60.6L88.7,50l3.8,0.1l1.5,10.6L99.1,50l3.7,0.1l-7.7,15.5h-3.7l-1.8-11.1l-5.9,11.1h-3.8L78.1,50
	z"/>
<path class="st1" d="M105.1,50.3h-0.8V50h1.8v0.3h-0.8v2.2h-0.3V50.3z"/>
<path class="st1" d="M106.6,50h0.4l0.5,1.3c0.1,0.2,0.1,0.3,0.2,0.5h0c0.1-0.2,0.1-0.4,0.2-0.5l0.5-1.3h0.4v2.5h-0.3v-1.4
	c0-0.2,0-0.5,0-0.7h0l-0.2,0.6l-0.5,1.3h-0.2l-0.5-1.3l-0.2-0.6h0c0,0.2,0,0.5,0,0.7v1.4h-0.3L106.6,50z"/>
</svg>
